<svg width="25" height="25" viewBox="0 0 25 25" fill="none" xmlns="http://www.w3.org/2000/svg">
<path d="M3.76965 6.2124H5.76965H21.7697" stroke="#FDFCFD" stroke-width="2" stroke-linecap="round" stroke-linejoin="round"/>
<path d="M19.7697 6.2124V20.2124C19.7697 20.7428 19.5589 21.2515 19.1839 21.6266C18.8088 22.0017 18.3001 22.2124 17.7697 22.2124H7.76965C7.23922 22.2124 6.73051 22.0017 6.35544 21.6266C5.98037 21.2515 5.76965 20.7428 5.76965 20.2124V6.2124M8.76965 6.2124V4.2124C8.76965 3.68197 8.98037 3.17326 9.35544 2.79819C9.73051 2.42312 10.2392 2.2124 10.7697 2.2124H14.7697C15.3001 2.2124 15.8088 2.42312 16.1839 2.79819C16.5589 3.17326 16.7697 3.68197 16.7697 4.2124V6.2124" stroke="#FDFCFD" stroke-width="2" stroke-linecap="round" stroke-linejoin="round"/>
<path d="M10.7697 11.2124V17.2124" stroke="#FDFCFD" stroke-width="2" stroke-linecap="round" stroke-linejoin="round"/>
<path d="M14.7697 11.2124V17.2124" stroke="#FDFCFD" stroke-width="2" stroke-linecap="round" stroke-linejoin="round"/>
</svg>
